<?xml version="1.0" encoding="UTF-8" standalone="no"?>
<!DOCTYPE svg PUBLIC "-//W3C//DTD SVG 1.1//EN"
 "http://www.w3.org/Graphics/SVG/1.1/DTD/svg11.dtd">
<!-- Generated by graphviz version 2.43.0 (0)
 -->
<!-- Title: RealHttpClient::setupClient Pages: 1 -->
<svg width="319pt" height="138pt"
 viewBox="0.00 0.00 319.00 138.00" xmlns="http://www.w3.org/2000/svg" xmlns:xlink="http://www.w3.org/1999/xlink">
<g id="graph0" class="graph" transform="scale(1 1) rotate(0) translate(4 134)">
<title>RealHttpClient::setupClient</title>
<!-- Node1 -->
<g id="Node000001" class="node">
<title>Node1</title>
<g id="a_Node000001"><a xlink:title="Ініціалізація HTTP клієнта">
<polygon fill="#999999" stroke="#666666" points="311,-74 162,-74 162,-55 311,-55 311,-74"/>
<text text-anchor="middle" x="236.5" y="-62" font-family="Helvetica,sans-Serif" font-size="10.00">RealHttpClient::setupClient</text>
</a>
</g>
</g>
<!-- Node2 -->
<g id="Node000002" class="node">
<title>Node2</title>
<g id="a_Node000002"><a xlink:href="classRealHttpClient.html#a4d5a29d9c7949c2592307563e55b4b5a" target="_top" xlink:title="DELETE запит">
<polygon fill="white" stroke="#666666" points="126,-130 0,-130 0,-111 126,-111 126,-130"/>
<text text-anchor="middle" x="63" y="-118" font-family="Helvetica,sans-Serif" font-size="10.00">RealHttpClient::Delete</text>
</a>
</g>
</g>
<!-- Node1&#45;&gt;Node2 -->
<g id="edge1_Node000001_Node000002" class="edge">
<title>Node1&#45;&gt;Node2</title>
<g id="a_edge1_Node000001_Node000002"><a xlink:title=" ">
<path fill="none" stroke="#63b8ff" d="M199.47,-77.53C178.19,-85.09 150.66,-94.65 126,-102.5 117.03,-105.36 107.27,-108.28 98.21,-110.91"/>
<polygon fill="#63b8ff" stroke="#63b8ff" points="200.83,-80.76 209.08,-74.1 198.48,-74.16 200.83,-80.76"/>
</a>
</g>
</g>
<!-- Node3 -->
<g id="Node000003" class="node">
<title>Node3</title>
<g id="a_Node000003"><a xlink:href="classRealHttpClient.html#aad7845a6d93fcf66e71534d369bf6271" target="_top" xlink:title="GET запит">
<polygon fill="white" stroke="#666666" points="118.5,-93 7.5,-93 7.5,-74 118.5,-74 118.5,-93"/>
<text text-anchor="middle" x="63" y="-81" font-family="Helvetica,sans-Serif" font-size="10.00">RealHttpClient::Get</text>
</a>
</g>
</g>
<!-- Node1&#45;&gt;Node3 -->
<g id="edge2_Node000001_Node000003" class="edge">
<title>Node1&#45;&gt;Node3</title>
<g id="a_edge2_Node000001_Node000003"><a xlink:title=" ">
<path fill="none" stroke="#63b8ff" d="M151.57,-73.8C140.42,-75.03 129.23,-76.27 118.76,-77.43"/>
<polygon fill="#63b8ff" stroke="#63b8ff" points="152.22,-77.25 161.77,-72.67 151.45,-70.29 152.22,-77.25"/>
</a>
</g>
</g>
<!-- Node4 -->
<g id="Node000004" class="node">
<title>Node4</title>
<g id="a_Node000004"><a xlink:href="classRealHttpClient.html#a27a58caf7e0f588f1e8d646e6b27f890" target="_top" xlink:title="POST запит">
<polygon fill="white" stroke="#666666" points="120.5,-56 5.5,-56 5.5,-37 120.5,-37 120.5,-56"/>
<text text-anchor="middle" x="63" y="-44" font-family="Helvetica,sans-Serif" font-size="10.00">RealHttpClient::Post</text>
</a>
</g>
</g>
<!-- Node1&#45;&gt;Node4 -->
<g id="edge3_Node000001_Node000004" class="edge">
<title>Node1&#45;&gt;Node4</title>
<g id="a_edge3_Node000001_Node000004"><a xlink:title=" ">
<path fill="none" stroke="#63b8ff" d="M151.69,-55.7C141.15,-54.6 130.56,-53.49 120.57,-52.44"/>
<polygon fill="#63b8ff" stroke="#63b8ff" points="151.46,-59.2 161.77,-56.76 152.19,-52.24 151.46,-59.2"/>
</a>
</g>
</g>
<!-- Node5 -->
<g id="Node000005" class="node">
<title>Node5</title>
<g id="a_Node000005"><a xlink:href="classRealHttpClient.html#a88781f9891aec4b2aa12b087b959da9e" target="_top" xlink:title="PUT запит">
<polygon fill="white" stroke="#666666" points="118,-19 8,-19 8,0 118,0 118,-19"/>
<text text-anchor="middle" x="63" y="-7" font-family="Helvetica,sans-Serif" font-size="10.00">RealHttpClient::Put</text>
</a>
</g>
</g>
<!-- Node1&#45;&gt;Node5 -->
<g id="edge4_Node000001_Node000005" class="edge">
<title>Node1&#45;&gt;Node5</title>
<g id="a_edge4_Node000001_Node000005"><a xlink:title=" ">
<path fill="none" stroke="#63b8ff" d="M197.21,-51.7C176.21,-44.74 149.71,-36.03 126,-28.5 116.13,-25.37 105.34,-22.03 95.58,-19.04"/>
<polygon fill="#63b8ff" stroke="#63b8ff" points="196.14,-55.03 206.73,-54.87 198.35,-48.39 196.14,-55.03"/>
</a>
</g>
</g>
</g>
</svg>
