<?xml version="1.0" encoding="UTF-8" standalone="no"?>
<!DOCTYPE svg PUBLIC "-//W3C//DTD SVG 1.1//EN"
 "http://www.w3.org/Graphics/SVG/1.1/DTD/svg11.dtd">
<!-- Generated by graphviz version 2.43.0 (0)
 -->
<!-- Title: ChatServer::handleGetChat Pages: 1 -->
<!--zoomable 353 -->

<svg id="main" version="1.1" xmlns="http://www.w3.org/2000/svg" xmlns:xlink="http://www.w3.org/1999/xlink" xml:space="preserve" onload="init(evt)">
<style type="text/css"><![CDATA[
.node, .edge {opacity: 0.7;}
.node.selected, .edge.selected {opacity: 1;}
.edge:hover path { stroke: red; }
.edge:hover polygon { stroke: red; fill: red; }
]]></style>

<defs>
  <circle id="rim" cx="0" cy="0" r="7"/>
  <circle id="rim2" cx="0" cy="0" r="3.5"/>
  <g id="zoomPlus">
    <use xlink:href="#rim" fill="#404040"><set attributeName="fill" to="#808080" begin="zoomplus.mouseover" end="zoomplus.mouseout"/></use>
    <path d="M-4,0h8M0,-4v8" fill="none" stroke="white" stroke-width="1.5" pointer-events="none"/>
  </g>
  <g id="zoomMin">
    <use xlink:href="#rim" fill="#404040"><set attributeName="fill" to="#808080" begin="zoomminus.mouseover" end="zoomminus.mouseout"/></use>
    <path d="M-4,0h8" fill="none" stroke="white" stroke-width="1.5" pointer-events="none"/>
  </g>
  <g id="arrowUp" transform="translate(30 24)">
    <use xlink:href="#rim"/>
    <path pointer-events="none" fill="none" stroke="white" stroke-width="1.5" d="M0,-3.0v7 M-2.5,-0.5L0,-3.0L2.5,-0.5"/>
  </g>
  <g id="arrowRight" transform="rotate(90) translate(36 -43)">
    <use xlink:href="#rim"/>
    <path pointer-events="none" fill="none" stroke="white" stroke-width="1.5" d="M0,-3.0v7 M-2.5,-0.5L0,-3.0L2.5,-0.5"/>
  </g>
  <g id="arrowDown" transform="rotate(180) translate(-30 -48)">
    <use xlink:href="#rim"/>
    <path pointer-events="none" fill="none" stroke="white" stroke-width="1.5" d="M0,-3.0v7 M-2.5,-0.5L0,-3.0L2.5,-0.5"/>
  </g>
  <g id="arrowLeft" transform="rotate(270) translate(-36 17)">
    <use xlink:href="#rim"/>
    <path pointer-events="none" fill="none" stroke="white" stroke-width="1.5" d="M0,-3.0v7 M-2.5,-0.5L0,-3.0L2.5,-0.5"/>
  </g>
  <g id="resetDef">
    <use xlink:href="#rim2" fill="#404040"><set attributeName="fill" to="#808080" begin="reset.mouseover" end="reset.mouseout"/></use>
  </g>
</defs>
<script type="application/ecmascript">
var viewWidth = 729;
var viewHeight = 353;
var sectionId = 'dynsection-8';
</script>
<script type="application/ecmascript" xlink:href="svg.min.js"/>
<svg id="graph" class="graph">
<g id="viewport">
<title>ChatServer::handleGetChat</title>
<!-- Node1 -->
<g id="Node000001" class="node">
<title>Node1</title>
<g id="a_Node000001"><a xlink:title="Обробка отримання конкретного чату">
<polygon fill="#999999" stroke="#666666" points="149,-117 0,-117 0,-98 149,-98 149,-117"/>
<text text-anchor="middle" x="74.5" y="-105" font-family="Helvetica,sans-Serif" font-size="10.00">ChatServer::handleGetChat</text>
</a>
</g>
</g>
<!-- Node2 -->
<g id="Node000002" class="node">
<title>Node2</title>
<g id="a_Node000002"><a xlink:href="classChatController.html#acf49d1176c498b7c61aca6ff2417c859" target="_top" xlink:title="Отримання конкретного чату">
<polygon fill="white" stroke="#666666" points="316,-200 185,-200 185,-181 316,-181 316,-200"/>
<text text-anchor="middle" x="250.5" y="-188" font-family="Helvetica,sans-Serif" font-size="10.00">ChatController::getChat</text>
</a>
</g>
</g>
<!-- Node1&#45;&gt;Node2 -->
<g id="edge1_Node000001_Node000002" class="edge">
<title>Node1&#45;&gt;Node2</title>
<g id="a_edge1_Node000001_Node000002"><a xlink:title=" ">
<path fill="none" stroke="#63b8ff" d="M95.46,-117.02C126.06,-131.62 184.73,-159.6 220.17,-176.51"/>
<polygon fill="#63b8ff" stroke="#63b8ff" points="218.97,-179.82 229.51,-180.96 221.99,-173.5 218.97,-179.82"/>
</a>
</g>
</g>
<!-- Node15 -->
<g id="Node000015" class="node">
<title>Node15</title>
<g id="a_Node000015"><a xlink:href="namespaceutils.html#a6ae5dfc9011502355e1ff21057c603ed" target="_top" xlink:title="Конвертація Crow request → RequestDTO.">
<polygon fill="white" stroke="#666666" points="290.5,-56 210.5,-56 210.5,-37 290.5,-37 290.5,-56"/>
<text text-anchor="middle" x="250.5" y="-44" font-family="Helvetica,sans-Serif" font-size="10.00">utils::getDTO</text>
</a>
</g>
</g>
<!-- Node1&#45;&gt;Node15 -->
<g id="edge14_Node000001_Node000015" class="edge">
<title>Node1&#45;&gt;Node15</title>
<g id="a_edge14_Node000001_Node000015"><a xlink:title=" ">
<path fill="none" stroke="#63b8ff" d="M102.69,-97.97C132.23,-87.61 179.59,-71.01 212.5,-59.47"/>
<polygon fill="#63b8ff" stroke="#63b8ff" points="213.94,-62.68 222.22,-56.06 211.62,-56.07 213.94,-62.68"/>
</a>
</g>
</g>
<!-- Node3 -->
<g id="Node000003" class="node">
<title>Node3</title>
<g id="a_Node000003"><a xlink:href="classChatController.html#a7defb49252eb5c5b13d1ae4474a26362" target="_top" xlink:title="Авторизація по токену">
<polygon fill="white" stroke="#666666" points="513.5,-339 373.5,-339 373.5,-320 513.5,-320 513.5,-339"/>
<text text-anchor="middle" x="443.5" y="-327" font-family="Helvetica,sans-Serif" font-size="10.00">ChatController::autoritize</text>
</a>
</g>
</g>
<!-- Node2&#45;&gt;Node3 -->
<g id="edge2_Node000002_Node000003" class="edge">
<title>Node2&#45;&gt;Node3</title>
<g id="a_edge2_Node000002_Node000003"><a xlink:title=" ">
<path fill="none" stroke="#63b8ff" d="M256.51,-200.26C269.08,-223.67 304.37,-283.14 352,-311.5 355.72,-313.71 359.66,-315.66 363.73,-317.37"/>
<polygon fill="#63b8ff" stroke="#63b8ff" points="362.84,-320.77 373.44,-320.95 365.27,-314.21 362.84,-320.77"/>
</a>
</g>
</g>
<!-- Node5 -->
<g id="Node000005" class="node">
<title>Node5</title>
<g id="a_Node000005"><a xlink:href="namespaceutils_1_1details.html#a75ceb9c7d6a281d7c2a982a06816f8d4" target="_top" xlink:title="Формування JSON помилки">
<polygon fill="white" stroke="#666666" points="508,-302 379,-302 379,-283 508,-283 508,-302"/>
<text text-anchor="middle" x="443.5" y="-290" font-family="Helvetica,sans-Serif" font-size="10.00">utils::details::formError</text>
</a>
</g>
</g>
<!-- Node2&#45;&gt;Node5 -->
<g id="edge4_Node000002_Node000005" class="edge">
<title>Node2&#45;&gt;Node5</title>
<g id="a_edge4_Node000002_Node000005"><a xlink:title=" ">
<path fill="none" stroke="#63b8ff" d="M259.82,-200.09C275.78,-217.83 312.62,-255.66 352,-274.5 357.37,-277.07 363.09,-279.27 368.94,-281.16"/>
<polygon fill="#63b8ff" stroke="#63b8ff" points="368.29,-284.62 378.87,-284.05 370.25,-277.9 368.29,-284.62"/>
</a>
</g>
</g>
<!-- Node6 -->
<g id="Node000006" class="node">
<title>Node6</title>
<g id="a_Node000006"><a xlink:href="classIChatManager.html#a477f70f9af3523305e433b6370f669ea" target="_top" xlink:title=" ">
<polygon fill="white" stroke="#666666" points="519,-265 368,-265 368,-246 519,-246 519,-265"/>
<text text-anchor="middle" x="443.5" y="-253" font-family="Helvetica,sans-Serif" font-size="10.00">IChatManager::getChatById</text>
</a>
</g>
</g>
<!-- Node2&#45;&gt;Node6 -->
<g id="edge5_Node000002_Node000006" class="edge">
<title>Node2&#45;&gt;Node6</title>
<g id="a_edge5_Node000002_Node000006"><a xlink:title=" ">
<path fill="none" stroke="#63b8ff" d="M269.17,-200.05C288.87,-210.35 321.93,-226.6 352,-236.5 360.2,-239.2 368.95,-241.6 377.65,-243.72"/>
<polygon fill="#63b8ff" stroke="#63b8ff" points="376.89,-247.13 387.42,-245.98 378.47,-240.31 376.89,-247.13"/>
</a>
</g>
</g>
<!-- Node7 -->
<g id="Node000007" class="node">
<title>Node7</title>
<g id="a_Node000007"><a xlink:href="classIChatManager.html#abf5031620c59109f2b99552588e5e54f" target="_top" xlink:title=" ">
<polygon fill="white" stroke="#666666" points="519.5,-227.5 367.5,-227.5 367.5,-197.5 519.5,-197.5 519.5,-227.5"/>
<text text-anchor="start" x="375.5" y="-215.5" font-family="Helvetica,sans-Serif" font-size="10.00">IChatManager::getMembers</text>
<text text-anchor="middle" x="443.5" y="-204.5" font-family="Helvetica,sans-Serif" font-size="10.00">Count</text>
</a>
</g>
</g>
<!-- Node2&#45;&gt;Node7 -->
<g id="edge6_Node000002_Node000007" class="edge">
<title>Node2&#45;&gt;Node7</title>
<g id="a_edge6_Node000002_Node000007"><a xlink:title=" ">
<path fill="none" stroke="#63b8ff" d="M316.16,-197.95C329.4,-199.47 343.52,-201.1 357.35,-202.69"/>
<polygon fill="#63b8ff" stroke="#63b8ff" points="357.02,-206.18 367.35,-203.84 357.82,-199.22 357.02,-206.18"/>
</a>
</g>
</g>
<!-- Node8 -->
<g id="Node000008" class="node">
<title>Node8</title>
<g id="a_Node000008"><a xlink:href="classIChatManager.html#af832c47b3036805603a1398e44750271" target="_top" xlink:title=" ">
<polygon fill="white" stroke="#666666" points="535,-179 352,-179 352,-160 535,-160 535,-179"/>
<text text-anchor="middle" x="443.5" y="-167" font-family="Helvetica,sans-Serif" font-size="10.00">IChatManager::getOtherMemberId</text>
</a>
</g>
</g>
<!-- Node2&#45;&gt;Node8 -->
<g id="edge7_Node000002_Node000008" class="edge">
<title>Node2&#45;&gt;Node8</title>
<g id="a_edge7_Node000002_Node000008"><a xlink:title=" ">
<path fill="none" stroke="#63b8ff" d="M316.16,-183.39C325.74,-182.34 335.78,-181.23 345.84,-180.13"/>
<polygon fill="#63b8ff" stroke="#63b8ff" points="346.33,-183.59 355.89,-179.02 345.57,-176.64 346.33,-183.59"/>
</a>
</g>
</g>
<!-- Node9 -->
<g id="Node000009" class="node">
<title>Node9</title>
<g id="a_Node000009"><a xlink:href="classChatController.html#a9f4eeddc6894741ffd88117246b7ac60" target="_top" xlink:title="Отримання реакцій чату">
<polygon fill="white" stroke="#666666" points="519.5,-141.5 367.5,-141.5 367.5,-111.5 519.5,-111.5 519.5,-141.5"/>
<text text-anchor="start" x="375.5" y="-129.5" font-family="Helvetica,sans-Serif" font-size="10.00">ChatController::getReaction</text>
<text text-anchor="middle" x="443.5" y="-118.5" font-family="Helvetica,sans-Serif" font-size="10.00">OfChat</text>
</a>
</g>
</g>
<!-- Node2&#45;&gt;Node9 -->
<g id="edge8_Node000002_Node000009" class="edge">
<title>Node2&#45;&gt;Node9</title>
<g id="a_edge8_Node000002_Node000009"><a xlink:title=" ">
<path fill="none" stroke="#63b8ff" d="M274.41,-180.85C294.63,-172.52 325,-160.44 352,-151.5 359.4,-149.05 367.19,-146.64 374.97,-144.35"/>
<polygon fill="#63b8ff" stroke="#63b8ff" points="376.15,-147.65 384.79,-141.51 374.21,-140.92 376.15,-147.65"/>
</a>
</g>
</g>
<!-- Node12 -->
<g id="Node000012" class="node">
<title>Node12</title>
<g id="a_Node000012"><a xlink:href="classChatController.html#a0ee4db611a0d5f161602cf8e0367ee92" target="_top" xlink:title="Отримання користувача за ID.">
<polygon fill="white" stroke="#666666" points="520,-93 367,-93 367,-74 520,-74 520,-93"/>
<text text-anchor="middle" x="443.5" y="-81" font-family="Helvetica,sans-Serif" font-size="10.00">ChatController::getUserById</text>
</a>
</g>
</g>
<!-- Node2&#45;&gt;Node12 -->
<g id="edge11_Node000002_Node000012" class="edge">
<title>Node2&#45;&gt;Node12</title>
<g id="a_edge11_Node000002_Node000012"><a xlink:title=" ">
<path fill="none" stroke="#63b8ff" d="M259.49,-180.77C275.17,-162.36 311.95,-122.49 352,-102.5 356.85,-100.08 361.99,-97.97 367.27,-96.12"/>
<polygon fill="#63b8ff" stroke="#63b8ff" points="368.39,-99.44 376.87,-93.09 366.28,-92.76 368.39,-99.44"/>
</a>
</g>
</g>
<!-- Node4 -->
<g id="Node000004" class="node">
<title>Node4</title>
<g id="a_Node000004"><a xlink:href="classIAuthoritizer.html#af840ed08a0a48fe13b1d7e8504763694" target="_top" xlink:title=" ">
<polygon fill="white" stroke="#666666" points="715,-344.5 577,-344.5 577,-314.5 715,-314.5 715,-344.5"/>
<text text-anchor="start" x="585" y="-332.5" font-family="Helvetica,sans-Serif" font-size="10.00">IAuthoritizer::verifyToken</text>
<text text-anchor="middle" x="646" y="-321.5" font-family="Helvetica,sans-Serif" font-size="10.00">AndGetUserId</text>
</a>
</g>
</g>
<!-- Node3&#45;&gt;Node4 -->
<g id="edge3_Node000003_Node000004" class="edge">
<title>Node3&#45;&gt;Node4</title>
<g id="a_edge3_Node000003_Node000004"><a xlink:title=" ">
<path fill="none" stroke="#63b8ff" d="M513.5,-329.5C530.64,-329.5 549.13,-329.5 566.68,-329.5"/>
<polygon fill="#63b8ff" stroke="#63b8ff" points="566.89,-333 576.89,-329.5 566.89,-326 566.89,-333"/>
</a>
</g>
</g>
<!-- Node10 -->
<g id="Node000010" class="node">
<title>Node10</title>
<g id="a_Node000010"><a xlink:href="classIMessageNetworkManager.html#aca8012b3fdb801b847ea6acb996bf044" target="_top" xlink:title=" ">
<polygon fill="white" stroke="#666666" points="719.5,-184.5 572.5,-184.5 572.5,-154.5 719.5,-154.5 719.5,-184.5"/>
<text text-anchor="start" x="580.5" y="-172.5" font-family="Helvetica,sans-Serif" font-size="10.00">IMessageNetworkManager</text>
<text text-anchor="middle" x="646" y="-161.5" font-family="Helvetica,sans-Serif" font-size="10.00">::getReaction</text>
</a>
</g>
</g>
<!-- Node9&#45;&gt;Node10 -->
<g id="edge9_Node000009_Node000010" class="edge">
<title>Node9&#45;&gt;Node10</title>
<g id="a_edge9_Node000009_Node000010"><a xlink:title=" ">
<path fill="none" stroke="#63b8ff" d="M514.63,-141.54C530.8,-145.01 548.14,-148.73 564.71,-152.28"/>
<polygon fill="#63b8ff" stroke="#63b8ff" points="564.4,-155.79 574.91,-154.47 565.87,-148.95 564.4,-155.79"/>
</a>
</g>
</g>
<!-- Node11 -->
<g id="Node000011" class="node">
<title>Node11</title>
<g id="a_Node000011"><a xlink:href="classINetworkFacade.html#a9c7afcb35b99977c6d733a9229d9c633" target="_top" xlink:title="Доступ до API повідомлень">
<polygon fill="white" stroke="#666666" points="721,-136 571,-136 571,-117 721,-117 721,-136"/>
<text text-anchor="middle" x="646" y="-124" font-family="Helvetica,sans-Serif" font-size="10.00">INetworkFacade::messages</text>
</a>
</g>
</g>
<!-- Node9&#45;&gt;Node11 -->
<g id="edge10_Node000009_Node000011" class="edge">
<title>Node9&#45;&gt;Node11</title>
<g id="a_edge10_Node000009_Node000011"><a xlink:title=" ">
<path fill="none" stroke="#63b8ff" d="M519.73,-126.5C533.01,-126.5 546.92,-126.5 560.44,-126.5"/>
<polygon fill="#63b8ff" stroke="#63b8ff" points="560.68,-130 570.68,-126.5 560.68,-123 560.68,-130"/>
</a>
</g>
</g>
<!-- Node13 -->
<g id="Node000013" class="node">
<title>Node13</title>
<g id="a_Node000013"><a xlink:href="classIUserNetworkManager.html#aeb405d3c91db0e6cbe438926b947435f" target="_top" xlink:title=" ">
<polygon fill="white" stroke="#666666" points="709,-98.5 583,-98.5 583,-68.5 709,-68.5 709,-98.5"/>
<text text-anchor="start" x="591" y="-86.5" font-family="Helvetica,sans-Serif" font-size="10.00">IUserNetworkManager</text>
<text text-anchor="middle" x="646" y="-75.5" font-family="Helvetica,sans-Serif" font-size="10.00">::getUserById</text>
</a>
</g>
</g>
<!-- Node12&#45;&gt;Node13 -->
<g id="edge12_Node000012_Node000013" class="edge">
<title>Node12&#45;&gt;Node13</title>
<g id="a_edge12_Node000012_Node000013"><a xlink:title=" ">
<path fill="none" stroke="#63b8ff" d="M520.01,-83.5C537.21,-83.5 555.43,-83.5 572.49,-83.5"/>
<polygon fill="#63b8ff" stroke="#63b8ff" points="572.95,-87 582.95,-83.5 572.95,-80 572.95,-87"/>
</a>
</g>
</g>
<!-- Node14 -->
<g id="Node000014" class="node">
<title>Node14</title>
<g id="a_Node000014"><a xlink:href="classINetworkFacade.html#afd90dfe44c4119ed6f55efc43e33715b" target="_top" xlink:title="Доступ до користувацького API.">
<polygon fill="white" stroke="#666666" points="709.5,-50 582.5,-50 582.5,-31 709.5,-31 709.5,-50"/>
<text text-anchor="middle" x="646" y="-38" font-family="Helvetica,sans-Serif" font-size="10.00">INetworkFacade::users</text>
</a>
</g>
</g>
<!-- Node12&#45;&gt;Node14 -->
<g id="edge13_Node000012_Node000014" class="edge">
<title>Node12&#45;&gt;Node14</title>
<g id="a_edge13_Node000012_Node000014"><a xlink:title=" ">
<path fill="none" stroke="#63b8ff" d="M493.87,-73.93C507.23,-71.27 521.68,-68.34 535,-65.5 554.48,-61.35 575.85,-56.55 594.53,-52.27"/>
<polygon fill="#63b8ff" stroke="#63b8ff" points="595.35,-55.68 604.31,-50.02 593.78,-48.85 595.35,-55.68"/>
</a>
</g>
</g>
<!-- Node16 -->
<g id="Node000016" class="node">
<title>Node16</title>
<g id="a_Node000016"><a xlink:href="namespaceutils_1_1details.html#a32cd79fcc9dce587c9893e85f6a93215" target="_top" xlink:title="Витяг токена авторизації">
<polygon fill="white" stroke="#666666" points="516,-56 371,-56 371,-37 516,-37 516,-56"/>
<text text-anchor="middle" x="443.5" y="-44" font-family="Helvetica,sans-Serif" font-size="10.00">utils::details::extractToken</text>
</a>
</g>
</g>
<!-- Node15&#45;&gt;Node16 -->
<g id="edge15_Node000015_Node000016" class="edge">
<title>Node15&#45;&gt;Node16</title>
<g id="a_edge15_Node000015_Node000016"><a xlink:title=" ">
<path fill="none" stroke="#63b8ff" d="M290.61,-46.5C310.76,-46.5 336.13,-46.5 360.33,-46.5"/>
<polygon fill="#63b8ff" stroke="#63b8ff" points="360.62,-50 370.62,-46.5 360.62,-43 360.62,-50"/>
</a>
</g>
</g>
<!-- Node17 -->
<g id="Node000017" class="node">
<title>Node17</title>
<g id="a_Node000017"><a xlink:href="namespaceutils_1_1details.html#a3bfdceddbd058f1fbe3f230fdee0ec09" target="_top" xlink:title="Отримання Content&#45;Type.">
<polygon fill="white" stroke="#666666" points="523,-19 364,-19 364,0 523,0 523,-19"/>
<text text-anchor="middle" x="443.5" y="-7" font-family="Helvetica,sans-Serif" font-size="10.00">utils::details::getContentType</text>
</a>
</g>
</g>
<!-- Node15&#45;&gt;Node17 -->
<g id="edge16_Node000015_Node000017" class="edge">
<title>Node15&#45;&gt;Node17</title>
<g id="a_edge16_Node000015_Node000017"><a xlink:title=" ">
<path fill="none" stroke="#63b8ff" d="M290.61,-38.92C317.28,-33.76 353.1,-26.82 383.25,-20.98"/>
<polygon fill="#63b8ff" stroke="#63b8ff" points="384.08,-24.38 393.24,-19.04 382.75,-17.51 384.08,-24.38"/>
</a>
</g>
</g>
</g>
</svg>

<g id="navigator" transform="translate(0 0)" fill="#404254">
  <rect fill="#f2f5e9" fill-opacity="0.5" stroke="#606060" stroke-width=".5" x="0" y="0" width="60" height="60"/>
  <use id="zoomplus" xlink:href="#zoomPlus" x="17" y="9" onmousedown="handleZoom(evt,'in')"/>
  <use id="zoomminus" xlink:href="#zoomMin" x="42" y="9" onmousedown="handleZoom(evt,'out')"/>
  <use id="reset" xlink:href="#resetDef" x="30" y="36" onmousedown="handleReset()"/>
   <use id="arrowup" xlink:href="#arrowUp" x="0" y="0" onmousedown="handlePan(0,-1)"/>
  <use id="arrowright" xlink:href="#arrowRight" x="0" y="0" onmousedown="handlePan(1,0)"/>
  <use id="arrowdown" xlink:href="#arrowDown" x="0" y="0" onmousedown="handlePan(0,1)"/>
  <use id="arrowleft" xlink:href="#arrowLeft" x="0" y="0" onmousedown="handlePan(-1,0)"/>
</g>
<svg viewBox="0 0 15 15" width="100%" height="30px" preserveAspectRatio="xMaxYMin meet">
 <g id="arrow_out" transform="scale(0.3 0.3)">
  <a xlink:href="classChatServer_a2a59345687061a0e468d5a3572afdbc1_cgraph_org.svg" target="_base">
   <rect id="button" ry="5" rx="5" y="6" x="6" height="38" width="38"
        fill="#f2f5e9" fill-opacity="0.5" stroke="#606060" stroke-width="1.0"/>
   <path id="arrow"
     d="M 11.500037,31.436501 C 11.940474,20.09759 22.043105,11.32322 32.158766,21.979434 L 37.068811,17.246167 C 37.068811,17.246167 37.088388,32 37.088388,32 L 22.160133,31.978069 C 22.160133,31.978069 26.997745,27.140456 26.997745,27.140456 C 18.528582,18.264221 13.291696,25.230495 11.500037,31.436501 z"
     style="fill:#404040;"/>
  </a>
 </g>
</svg>

<style type='text/css'>
<![CDATA[
[data-mouse-over-selected='false'] { opacity: 0.7; }
[data-mouse-over-selected='true']  { opacity: 1.0; }
]]>
</style>
<script type="application/ecmascript"><![CDATA[
document.addEventListener('DOMContentLoaded', (event) => {
  highlightEdges();
  highlightAdjacentNodes();
});
]]></script>
</svg>
