<?xml version="1.0" encoding="UTF-8" standalone="no"?>
<!DOCTYPE svg PUBLIC "-//W3C//DTD SVG 1.1//EN"
 "http://www.w3.org/Graphics/SVG/1.1/DTD/svg11.dtd">
<!-- Generated by graphviz version 2.43.0 (0)
 -->
<!-- Title: MainWindow::setMessageAnswerOnMode Pages: 1 -->
<svg width="528pt" height="243pt"
 viewBox="0.00 0.00 528.00 242.92" xmlns="http://www.w3.org/2000/svg" xmlns:xlink="http://www.w3.org/1999/xlink">
<g id="graph0" class="graph" transform="scale(1 1) rotate(0) translate(4 238.92)">
<title>MainWindow::setMessageAnswerOnMode</title>
<!-- Node1 -->
<g id="Node000001" class="node">
<title>Node1</title>
<g id="a_Node000001"><a xlink:title=" ">
<polygon fill="#999999" stroke="#666666" points="179,-147 0,-147 0,-117 179,-117 179,-147"/>
<text text-anchor="start" x="8" y="-135" font-family="Helvetica,sans-Serif" font-size="10.00">MainWindow::setMessageAnswer</text>
<text text-anchor="middle" x="89.5" y="-124" font-family="Helvetica,sans-Serif" font-size="10.00">OnMode</text>
</a>
</g>
</g>
<!-- Node2 -->
<g id="Node000002" class="node">
<title>Node2</title>
<g id="a_Node000002"><a xlink:href="namespaceutils_1_1ui.html#a89d496871d21f47bc437d1fa37cc2898" target="_top" xlink:title=" ">
<polygon fill="white" stroke="#666666" points="520,-184.5 404,-184.5 404,-165.5 520,-165.5 520,-184.5"/>
<text text-anchor="middle" x="462" y="-172.5" font-family="Helvetica,sans-Serif" font-size="10.00">utils::ui::clearLayout</text>
</a>
</g>
</g>
<!-- Node1&#45;&gt;Node2 -->
<g id="edge1_Node000001_Node000002" class="edge">
<title>Node1&#45;&gt;Node2</title>
<g id="a_edge1_Node000001_Node000002"><a xlink:title=" ">
<path fill="none" stroke="#63b8ff" d="M104.86,-147.01C126.41,-168.33 169.46,-206.4 215,-221 279.75,-241.76 301.79,-236.48 368,-221 393.54,-215.03 420.12,-200.97 438.29,-189.95"/>
<polygon fill="#63b8ff" stroke="#63b8ff" points="440.34,-192.79 446.97,-184.53 436.63,-186.86 440.34,-192.79"/>
</a>
</g>
</g>
<!-- Node3 -->
<g id="Node000003" class="node">
<title>Node3</title>
<g id="a_Node000003"><a xlink:href="classDelegatorsFactory.html#a4858eb2864ea92966a123c36a86cec52" target="_top" xlink:title=" ">
<polygon fill="white" stroke="#666666" points="351.5,-212 231.5,-212 231.5,-182 351.5,-182 351.5,-212"/>
<text text-anchor="start" x="239.5" y="-200" font-family="Helvetica,sans-Serif" font-size="10.00">DelegatorsFactory::</text>
<text text-anchor="middle" x="291.5" y="-189" font-family="Helvetica,sans-Serif" font-size="10.00">getMessageDelegate</text>
</a>
</g>
</g>
<!-- Node1&#45;&gt;Node3 -->
<g id="edge2_Node000001_Node000003" class="edge">
<title>Node1&#45;&gt;Node3</title>
<g id="a_edge2_Node000001_Node000003"><a xlink:title=" ">
<path fill="none" stroke="#63b8ff" d="M135.7,-147.01C159.31,-154.82 188.69,-164.49 215,-173 220.93,-174.92 227.12,-176.91 233.29,-178.88"/>
<polygon fill="#63b8ff" stroke="#63b8ff" points="232.36,-182.26 242.95,-181.97 234.49,-175.59 232.36,-182.26"/>
</a>
</g>
</g>
<!-- Node4 -->
<g id="Node000004" class="node">
<title>Node4</title>
<g id="a_Node000004"><a xlink:href="structMessage.html#a3cb61ad4133a391997f2b1be1e13e0ba" target="_top" xlink:title=" ">
<polygon fill="white" stroke="#666666" points="360,-163.5 223,-163.5 223,-144.5 360,-144.5 360,-163.5"/>
<text text-anchor="middle" x="291.5" y="-151.5" font-family="Helvetica,sans-Serif" font-size="10.00">Message::isOfflineSaved</text>
</a>
</g>
</g>
<!-- Node1&#45;&gt;Node4 -->
<g id="edge3_Node000001_Node000004" class="edge">
<title>Node1&#45;&gt;Node4</title>
<g id="a_edge3_Node000001_Node000004"><a xlink:title=" ">
<path fill="none" stroke="#63b8ff" d="M179.1,-141.75C190.38,-142.99 201.85,-144.25 212.94,-145.47"/>
<polygon fill="#63b8ff" stroke="#63b8ff" points="212.67,-148.96 223,-146.57 213.44,-142 212.67,-148.96"/>
</a>
</g>
</g>
<!-- Node5 -->
<g id="Node000005" class="node">
<title>Node5</title>
<g id="a_Node000005"><a xlink:href="classMainWindow.html#a035503a4823947ee346f01eed9b457ed" target="_top" xlink:title=" ">
<polygon fill="white" stroke="#666666" points="368,-126 215,-126 215,-96 368,-96 368,-126"/>
<text text-anchor="start" x="223" y="-114" font-family="Helvetica,sans-Serif" font-size="10.00">MainWindow::resetMessage</text>
<text text-anchor="middle" x="291.5" y="-103" font-family="Helvetica,sans-Serif" font-size="10.00">AnswerOnMode</text>
</a>
</g>
</g>
<!-- Node1&#45;&gt;Node5 -->
<g id="edge4_Node000001_Node000005" class="edge">
<title>Node1&#45;&gt;Node5</title>
<g id="a_edge4_Node000001_Node000005"><a xlink:title=" ">
<path fill="none" stroke="#63b8ff" d="M179.1,-122.7C187.56,-121.81 196.14,-120.91 204.59,-120.02"/>
<polygon fill="#63b8ff" stroke="#63b8ff" points="205.22,-123.47 214.8,-118.95 204.49,-116.51 205.22,-123.47"/>
</a>
</g>
</g>
<!-- Node6 -->
<g id="Node000006" class="node">
<title>Node6</title>
<g id="a_Node000006"><a xlink:href="classMainWindow.html#aa6d52aaaec26f681427bc17a16c8f55b" target="_top" xlink:title=" ">
<polygon fill="white" stroke="#666666" points="363.5,-78 219.5,-78 219.5,-48 363.5,-48 363.5,-78"/>
<text text-anchor="start" x="227.5" y="-66" font-family="Helvetica,sans-Serif" font-size="10.00">MainWindow::scrollСhatTo</text>
<text text-anchor="middle" x="291.5" y="-55" font-family="Helvetica,sans-Serif" font-size="10.00">Message</text>
</a>
</g>
</g>
<!-- Node1&#45;&gt;Node6 -->
<g id="edge6_Node000001_Node000006" class="edge">
<title>Node1&#45;&gt;Node6</title>
<g id="a_edge6_Node000001_Node000006"><a xlink:title=" ">
<path fill="none" stroke="#63b8ff" d="M131.01,-116.9C155.29,-107.97 186.82,-96.57 215,-87 220.59,-85.1 226.43,-83.17 232.27,-81.26"/>
<polygon fill="#63b8ff" stroke="#63b8ff" points="233.64,-84.49 242.08,-78.08 231.48,-77.83 233.64,-84.49"/>
</a>
</g>
</g>
<!-- Node7 -->
<g id="Node000007" class="node">
<title>Node7</title>
<g id="a_Node000007"><a xlink:href="classMessageDelegate.html#af6692bd93f280217be50f445a5849307" target="_top" xlink:title=" ">
<polygon fill="white" stroke="#666666" points="367,-30 216,-30 216,0 367,0 367,-30"/>
<text text-anchor="start" x="224" y="-18" font-family="Helvetica,sans-Serif" font-size="10.00">MessageDelegate::setDraw</text>
<text text-anchor="middle" x="291.5" y="-7" font-family="Helvetica,sans-Serif" font-size="10.00">AnswerOn</text>
</a>
</g>
</g>
<!-- Node1&#45;&gt;Node7 -->
<g id="edge7_Node000001_Node000007" class="edge">
<title>Node1&#45;&gt;Node7</title>
<g id="a_edge7_Node000001_Node000007"><a xlink:title=" ">
<path fill="none" stroke="#63b8ff" d="M107,-116.79C129.76,-96.52 172.77,-60.7 215,-39 218.55,-37.18 222.26,-35.46 226.05,-33.85"/>
<polygon fill="#63b8ff" stroke="#63b8ff" points="227.6,-37 235.6,-30.05 225.01,-30.49 227.6,-37"/>
</a>
</g>
</g>
<!-- Node5&#45;&gt;Node2 -->
<g id="edge5_Node000005_Node000002" class="edge">
<title>Node5&#45;&gt;Node2</title>
<g id="a_edge5_Node000005_Node000002"><a xlink:title=" ">
<path fill="none" stroke="#63b8ff" d="M339.82,-126.05C349.2,-129.2 358.95,-132.61 368,-136 388.89,-143.82 412.02,-153.52 429.99,-161.29"/>
<polygon fill="#63b8ff" stroke="#63b8ff" points="428.83,-164.6 439.39,-165.38 431.62,-158.18 428.83,-164.6"/>
</a>
</g>
</g>
</g>
</svg>
