<?xml version="1.0" encoding="UTF-8" standalone="no"?>
<!DOCTYPE svg PUBLIC "-//W3C//DTD SVG 1.1//EN"
 "http://www.w3.org/Graphics/SVG/1.1/DTD/svg11.dtd">
<!-- Generated by graphviz version 2.43.0 (0)
 -->
<!-- Title: common/entities/include/entities/Message.h Pages: 1 -->
<!--zoomable 324 -->

<svg id="main" version="1.1" xmlns="http://www.w3.org/2000/svg" xmlns:xlink="http://www.w3.org/1999/xlink" xml:space="preserve" onload="init(evt)">
<style type="text/css"><![CDATA[
.node, .edge {opacity: 0.7;}
.node.selected, .edge.selected {opacity: 1;}
.edge:hover path { stroke: red; }
.edge:hover polygon { stroke: red; fill: red; }
]]></style>

<defs>
  <circle id="rim" cx="0" cy="0" r="7"/>
  <circle id="rim2" cx="0" cy="0" r="3.5"/>
  <g id="zoomPlus">
    <use xlink:href="#rim" fill="#404040"><set attributeName="fill" to="#808080" begin="zoomplus.mouseover" end="zoomplus.mouseout"/></use>
    <path d="M-4,0h8M0,-4v8" fill="none" stroke="white" stroke-width="1.5" pointer-events="none"/>
  </g>
  <g id="zoomMin">
    <use xlink:href="#rim" fill="#404040"><set attributeName="fill" to="#808080" begin="zoomminus.mouseover" end="zoomminus.mouseout"/></use>
    <path d="M-4,0h8" fill="none" stroke="white" stroke-width="1.5" pointer-events="none"/>
  </g>
  <g id="arrowUp" transform="translate(30 24)">
    <use xlink:href="#rim"/>
    <path pointer-events="none" fill="none" stroke="white" stroke-width="1.5" d="M0,-3.0v7 M-2.5,-0.5L0,-3.0L2.5,-0.5"/>
  </g>
  <g id="arrowRight" transform="rotate(90) translate(36 -43)">
    <use xlink:href="#rim"/>
    <path pointer-events="none" fill="none" stroke="white" stroke-width="1.5" d="M0,-3.0v7 M-2.5,-0.5L0,-3.0L2.5,-0.5"/>
  </g>
  <g id="arrowDown" transform="rotate(180) translate(-30 -48)">
    <use xlink:href="#rim"/>
    <path pointer-events="none" fill="none" stroke="white" stroke-width="1.5" d="M0,-3.0v7 M-2.5,-0.5L0,-3.0L2.5,-0.5"/>
  </g>
  <g id="arrowLeft" transform="rotate(270) translate(-36 17)">
    <use xlink:href="#rim"/>
    <path pointer-events="none" fill="none" stroke="white" stroke-width="1.5" d="M0,-3.0v7 M-2.5,-0.5L0,-3.0L2.5,-0.5"/>
  </g>
  <g id="resetDef">
    <use xlink:href="#rim2" fill="#404040"><set attributeName="fill" to="#808080" begin="reset.mouseover" end="reset.mouseout"/></use>
  </g>
</defs>
<script type="application/ecmascript">
var viewWidth = 2460;
var viewHeight = 324;
var sectionId = 'dynsection-1';
</script>
<script type="application/ecmascript" xlink:href="svg.min.js"/>
<svg id="graph" class="graph">
<g id="viewport">
<title>common/entities/include/entities/Message.h</title>
<!-- Node1 -->
<g id="Node000001" class="node">
<title>Node1</title>
<g id="a_Node000001"><a xlink:title=" ">
<polygon fill="#999999" stroke="#666666" points="1609.5,-316 1472.5,-316 1472.5,-286 1609.5,-286 1609.5,-316"/>
<text text-anchor="start" x="1480.5" y="-304" font-family="Helvetica,sans-Serif" font-size="10.00">common/entities/include</text>
<text text-anchor="middle" x="1541" y="-293" font-family="Helvetica,sans-Serif" font-size="10.00">/entities/Message.h</text>
</a>
</g>
</g>
<!-- Node2 -->
<g id="Node000002" class="node">
<title>Node2</title>
<g id="a_Node000002"><a xlink:href="MessageManager_8h.html" target="_top" xlink:title=" ">
<polygon fill="white" stroke="#666666" points="747,-250 581,-250 581,-209 747,-209 747,-250"/>
<text text-anchor="start" x="589" y="-238" font-family="Helvetica,sans-Serif" font-size="10.00">Backend/MessageService</text>
<text text-anchor="start" x="589" y="-227" font-family="Helvetica,sans-Serif" font-size="10.00">/include/messageservice</text>
<text text-anchor="middle" x="664" y="-216" font-family="Helvetica,sans-Serif" font-size="10.00">/managers/MessageManager.h</text>
</a>
</g>
</g>
<!-- Node1&#45;&gt;Node2 -->
<g id="edge1_Node000001_Node000002" class="edge">
<title>Node1&#45;&gt;Node2</title>
<g id="a_edge1_Node000001_Node000002"><a xlink:title=" ">
<path fill="none" stroke="#63b8ff" d="M1462.1,-293.75C1296.95,-280.66 916.23,-250.49 747.32,-237.1"/>
<polygon fill="#63b8ff" stroke="#63b8ff" points="1461.94,-297.25 1472.18,-294.55 1462.49,-290.27 1461.94,-297.25"/>
</a>
</g>
</g>
<!-- Node4 -->
<g id="Node000004" class="node">
<title>Node4</title>
<g id="a_Node000004"><a xlink:href="controller_8cpp.html" target="_top" xlink:title=" ">
<polygon fill="white" stroke="#666666" points="298,-167.5 158,-167.5 158,-137.5 298,-137.5 298,-167.5"/>
<text text-anchor="start" x="166" y="-155.5" font-family="Helvetica,sans-Serif" font-size="10.00">Backend/MessageService</text>
<text text-anchor="middle" x="228" y="-144.5" font-family="Helvetica,sans-Serif" font-size="10.00">/src/controller.cpp</text>
</a>
</g>
</g>
<!-- Node1&#45;&gt;Node4 -->
<g id="edge8_Node000001_Node000004" class="edge">
<title>Node1&#45;&gt;Node4</title>
<g id="a_edge8_Node000001_Node000004"><a xlink:title=" ">
<path fill="none" stroke="#63b8ff" d="M1462.13,-298.19C1262.81,-293.24 742.64,-277.98 572,-250 459.07,-231.48 330.24,-189.53 267.08,-167.54"/>
<polygon fill="#63b8ff" stroke="#63b8ff" points="1462.15,-301.69 1472.23,-298.43 1462.32,-294.69 1462.15,-301.69"/>
</a>
</g>
</g>
<!-- Node8 -->
<g id="Node000008" class="node">
<title>Node8</title>
<g id="a_Node000008"><a xlink:href="QueuePublisher_8cpp.html" target="_top" xlink:title=" ">
<polygon fill="white" stroke="#666666" points="1331,-244.5 1191,-244.5 1191,-214.5 1331,-214.5 1331,-244.5"/>
<text text-anchor="start" x="1199" y="-232.5" font-family="Helvetica,sans-Serif" font-size="10.00">Backend/MessageService</text>
<text text-anchor="middle" x="1261" y="-221.5" font-family="Helvetica,sans-Serif" font-size="10.00">/src/QueuePublisher.cpp</text>
</a>
</g>
</g>
<!-- Node1&#45;&gt;Node8 -->
<g id="edge7_Node000001_Node000008" class="edge">
<title>Node1&#45;&gt;Node8</title>
<g id="a_edge7_Node000001_Node000008"><a xlink:title=" ">
<path fill="none" stroke="#63b8ff" d="M1474.39,-283.47C1426.6,-271.61 1362.91,-255.8 1317.58,-244.54"/>
<polygon fill="#63b8ff" stroke="#63b8ff" points="1473.79,-286.92 1484.34,-285.94 1475.48,-280.13 1473.79,-286.92"/>
</a>
</g>
</g>
<!-- Node9 -->
<g id="Node000009" class="node">
<title>Node9</title>
<g id="a_Node000009"><a xlink:href="NotificationOrchestrator_8h.html" target="_top" xlink:title=" ">
<polygon fill="white" stroke="#666666" points="1546.5,-250 1349.5,-250 1349.5,-209 1546.5,-209 1546.5,-250"/>
<text text-anchor="start" x="1357.5" y="-238" font-family="Helvetica,sans-Serif" font-size="10.00">Backend/NotificationService</text>
<text text-anchor="start" x="1357.5" y="-227" font-family="Helvetica,sans-Serif" font-size="10.00">/include/notificationservice</text>
<text text-anchor="middle" x="1448" y="-216" font-family="Helvetica,sans-Serif" font-size="10.00">/managers/NotificationOrchestrator.h</text>
</a>
</g>
</g>
<!-- Node1&#45;&gt;Node9 -->
<g id="edge9_Node000001_Node000009" class="edge">
<title>Node1&#45;&gt;Node9</title>
<g id="a_edge9_Node000001_Node000009"><a xlink:title=" ">
<path fill="none" stroke="#63b8ff" d="M1513.94,-279.77C1501.42,-270.42 1486.6,-259.35 1474.19,-250.07"/>
<polygon fill="#63b8ff" stroke="#63b8ff" points="1512.07,-282.75 1522.18,-285.94 1516.26,-277.15 1512.07,-282.75"/>
</a>
</g>
</g>
<!-- Node18 -->
<g id="Node000018" class="node">
<title>Node18</title>
<g id="a_Node000018"><a xlink:href="SendMessageHandler_8cpp.html" target="_top" xlink:title=" ">
<polygon fill="white" stroke="#666666" points="1930.5,-244.5 1723.5,-244.5 1723.5,-214.5 1930.5,-214.5 1930.5,-244.5"/>
<text text-anchor="start" x="1731.5" y="-232.5" font-family="Helvetica,sans-Serif" font-size="10.00">Backend/NotificationService</text>
<text text-anchor="middle" x="1827" y="-221.5" font-family="Helvetica,sans-Serif" font-size="10.00">/src/handlers/SendMessageHandler.cpp</text>
</a>
</g>
</g>
<!-- Node1&#45;&gt;Node18 -->
<g id="edge20_Node000001_Node000018" class="edge">
<title>Node1&#45;&gt;Node18</title>
<g id="a_edge20_Node000001_Node000018"><a xlink:title=" ">
<path fill="none" stroke="#63b8ff" d="M1608.73,-283.54C1657.57,-271.67 1722.81,-255.82 1769.21,-244.54"/>
<polygon fill="#63b8ff" stroke="#63b8ff" points="1607.77,-280.17 1598.88,-285.94 1609.42,-286.98 1607.77,-280.17"/>
</a>
</g>
</g>
<!-- Node19 -->
<g id="Node000019" class="node">
<title>Node19</title>
<g id="a_Node000019"><a xlink:href="test__rabitmqpublisher_8cpp.html" target="_top" xlink:title=" ">
<polygon fill="white" stroke="#666666" points="2121.5,-244.5 1948.5,-244.5 1948.5,-214.5 2121.5,-214.5 2121.5,-244.5"/>
<text text-anchor="start" x="1956.5" y="-232.5" font-family="Helvetica,sans-Serif" font-size="10.00">Backend/NotificationService</text>
<text text-anchor="middle" x="2035" y="-221.5" font-family="Helvetica,sans-Serif" font-size="10.00">/tests/test_rabitmqpublisher.cpp</text>
</a>
</g>
</g>
<!-- Node1&#45;&gt;Node19 -->
<g id="edge21_Node000001_Node000019" class="edge">
<title>Node1&#45;&gt;Node19</title>
<g id="a_edge21_Node000001_Node000019"><a xlink:title=" ">
<path fill="none" stroke="#63b8ff" d="M1619.59,-291.9C1700.06,-283.18 1828.61,-268.12 1939,-250 1948.82,-248.39 1959.16,-246.5 1969.28,-244.53"/>
<polygon fill="#63b8ff" stroke="#63b8ff" points="1619.11,-288.43 1609.54,-292.98 1619.86,-295.39 1619.11,-288.43"/>
</a>
</g>
</g>
<!-- Node20 -->
<g id="Node000020" class="node">
<title>Node20</title>
<g id="a_Node000020"><a xlink:href="MockPublisher_8h.html" target="_top" xlink:title=" ">
<polygon fill="white" stroke="#666666" points="1705.5,-244.5 1564.5,-244.5 1564.5,-214.5 1705.5,-214.5 1705.5,-244.5"/>
<text text-anchor="start" x="1572.5" y="-232.5" font-family="Helvetica,sans-Serif" font-size="10.00">Backend/common_mocks</text>
<text text-anchor="middle" x="1635" y="-221.5" font-family="Helvetica,sans-Serif" font-size="10.00">/mocks/MockPublisher.h</text>
</a>
</g>
</g>
<!-- Node1&#45;&gt;Node20 -->
<g id="edge22_Node000001_Node000020" class="edge">
<title>Node1&#45;&gt;Node20</title>
<g id="a_edge22_Node000001_Node000020"><a xlink:title=" ">
<path fill="none" stroke="#63b8ff" d="M1568.13,-279.94C1583.46,-268.6 1602.25,-254.71 1616.01,-244.54"/>
<polygon fill="#63b8ff" stroke="#63b8ff" points="1565.98,-277.18 1560.02,-285.94 1570.14,-282.8 1565.98,-277.18"/>
</a>
</g>
</g>
<!-- Node22 -->
<g id="Node000022" class="node">
<title>Node22</title>
<g id="a_Node000022"><a xlink:href="MessageMeta_8h.html" target="_top" xlink:title=" ">
<polygon fill="white" stroke="#666666" points="2258.5,-250 2139.5,-250 2139.5,-209 2258.5,-209 2258.5,-250"/>
<text text-anchor="start" x="2147.5" y="-238" font-family="Helvetica,sans-Serif" font-size="10.00">common/Persistence</text>
<text text-anchor="start" x="2147.5" y="-227" font-family="Helvetica,sans-Serif" font-size="10.00">/include/metaentity</text>
<text text-anchor="middle" x="2199" y="-216" font-family="Helvetica,sans-Serif" font-size="10.00">/MessageMeta.h</text>
</a>
</g>
</g>
<!-- Node1&#45;&gt;Node22 -->
<g id="edge25_Node000001_Node000022" class="edge">
<title>Node1&#45;&gt;Node22</title>
<g id="a_edge25_Node000001_Node000022"><a xlink:title=" ">
<path fill="none" stroke="#63b8ff" d="M1619.92,-298.07C1733.52,-294.22 1949.36,-282.88 2130,-250 2133.06,-249.44 2136.18,-248.81 2139.32,-248.12"/>
<polygon fill="#63b8ff" stroke="#63b8ff" points="1619.46,-294.59 1609.58,-298.41 1619.69,-301.58 1619.46,-294.59"/>
</a>
</g>
</g>
<!-- Node26 -->
<g id="Node000026" class="node">
<title>Node26</title>
<g id="a_Node000026"><a xlink:href="test__genericrepository_8cpp.html" target="_top" xlink:title=" ">
<polygon fill="white" stroke="#666666" points="2451.5,-244.5 2276.5,-244.5 2276.5,-214.5 2451.5,-214.5 2451.5,-244.5"/>
<text text-anchor="start" x="2284.5" y="-232.5" font-family="Helvetica,sans-Serif" font-size="10.00">common/Persistence</text>
<text text-anchor="middle" x="2364" y="-221.5" font-family="Helvetica,sans-Serif" font-size="10.00">/tests/test_genericrepository.cpp</text>
</a>
</g>
</g>
<!-- Node1&#45;&gt;Node26 -->
<g id="edge29_Node000001_Node000026" class="edge">
<title>Node1&#45;&gt;Node26</title>
<g id="a_edge29_Node000001_Node000026"><a xlink:title=" ">
<path fill="none" stroke="#63b8ff" d="M1619.87,-297.98C1753.7,-293.79 2033.55,-281.73 2268,-250 2278.7,-248.55 2290,-246.62 2300.94,-244.54"/>
<polygon fill="#63b8ff" stroke="#63b8ff" points="1619.6,-294.48 1609.71,-298.29 1619.82,-301.48 1619.6,-294.48"/>
</a>
</g>
</g>
<!-- Node27 -->
<g id="Node000027" class="node">
<title>Node27</title>
<g id="a_Node000027"><a xlink:href="UserMessage_8h.html" target="_top" xlink:title=" ">
<polygon fill="white" stroke="#666666" points="296.5,-244.5 159.5,-244.5 159.5,-214.5 296.5,-214.5 296.5,-244.5"/>
<text text-anchor="start" x="167.5" y="-232.5" font-family="Helvetica,sans-Serif" font-size="10.00">common/entities/include</text>
<text text-anchor="middle" x="228" y="-221.5" font-family="Helvetica,sans-Serif" font-size="10.00">/entities/UserMessage.h</text>
</a>
</g>
</g>
<!-- Node1&#45;&gt;Node27 -->
<g id="edge30_Node000001_Node000027" class="edge">
<title>Node1&#45;&gt;Node27</title>
<g id="a_edge30_Node000001_Node000027"><a xlink:title=" ">
<path fill="none" stroke="#63b8ff" d="M1462.26,-298.72C1275.38,-295.23 790.52,-283.43 387,-250 357.34,-247.54 324.7,-243.73 296.75,-240.13"/>
<polygon fill="#63b8ff" stroke="#63b8ff" points="1462.21,-302.22 1472.27,-298.91 1462.34,-295.23 1462.21,-302.22"/>
</a>
</g>
</g>
<!-- Node3 -->
<g id="Node000003" class="node">
<title>Node3</title>
<g id="a_Node000003"><a xlink:href="Backend_2MessageService_2main_8cpp.html" target="_top" xlink:title=" ">
<polygon fill="white" stroke="#666666" points="810,-167.5 670,-167.5 670,-137.5 810,-137.5 810,-167.5"/>
<text text-anchor="start" x="678" y="-155.5" font-family="Helvetica,sans-Serif" font-size="10.00">Backend/MessageService</text>
<text text-anchor="middle" x="740" y="-144.5" font-family="Helvetica,sans-Serif" font-size="10.00">/main.cpp</text>
</a>
</g>
</g>
<!-- Node2&#45;&gt;Node3 -->
<g id="edge2_Node000002_Node000003" class="edge">
<title>Node2&#45;&gt;Node3</title>
<g id="a_edge2_Node000002_Node000003"><a xlink:title=" ">
<path fill="none" stroke="#63b8ff" d="M691.29,-201.57C702.83,-190.18 715.79,-177.39 725.45,-167.86"/>
<polygon fill="#63b8ff" stroke="#63b8ff" points="688.63,-199.28 683.97,-208.79 693.54,-204.26 688.63,-199.28"/>
</a>
</g>
</g>
<!-- Node2&#45;&gt;Node4 -->
<g id="edge3_Node000002_Node000004" class="edge">
<title>Node2&#45;&gt;Node4</title>
<g id="a_edge3_Node000002_Node000004"><a xlink:title=" ">
<path fill="none" stroke="#63b8ff" d="M570.69,-216.28C498.43,-206.26 395.98,-190.86 307,-173 298.97,-171.39 290.52,-169.5 282.26,-167.56"/>
<polygon fill="#63b8ff" stroke="#63b8ff" points="570.29,-219.76 580.68,-217.66 571.25,-212.82 570.29,-219.76"/>
</a>
</g>
</g>
<!-- Node5 -->
<g id="Node000005" class="node">
<title>Node5</title>
<g id="a_Node000005"><a xlink:href="MessageManager_8cpp.html" target="_top" xlink:title=" ">
<polygon fill="white" stroke="#666666" points="1022,-167.5 828,-167.5 828,-137.5 1022,-137.5 1022,-167.5"/>
<text text-anchor="start" x="836" y="-155.5" font-family="Helvetica,sans-Serif" font-size="10.00">Backend/MessageService</text>
<text text-anchor="middle" x="925" y="-144.5" font-family="Helvetica,sans-Serif" font-size="10.00">/src/managers/MessageManager.cpp</text>
</a>
</g>
</g>
<!-- Node2&#45;&gt;Node5 -->
<g id="edge4_Node000002_Node000005" class="edge">
<title>Node2&#45;&gt;Node5</title>
<g id="a_edge4_Node000002_Node000005"><a xlink:title=" ">
<path fill="none" stroke="#63b8ff" d="M741.6,-206.2C785.16,-193.68 838.19,-178.45 875.99,-167.58"/>
<polygon fill="#63b8ff" stroke="#63b8ff" points="740.54,-202.86 731.89,-208.99 742.47,-209.59 740.54,-202.86"/>
</a>
</g>
</g>
<!-- Node6 -->
<g id="Node000006" class="node">
<title>Node6</title>
<g id="a_Node000006"><a xlink:href="MessageService_2tests_2test__controller_8cpp.html" target="_top" xlink:title=" ">
<polygon fill="white" stroke="#666666" points="456,-167.5 316,-167.5 316,-137.5 456,-137.5 456,-167.5"/>
<text text-anchor="start" x="324" y="-155.5" font-family="Helvetica,sans-Serif" font-size="10.00">Backend/MessageService</text>
<text text-anchor="middle" x="386" y="-144.5" font-family="Helvetica,sans-Serif" font-size="10.00">/tests/test_controller.cpp</text>
</a>
</g>
</g>
<!-- Node2&#45;&gt;Node6 -->
<g id="edge5_Node000002_Node000006" class="edge">
<title>Node2&#45;&gt;Node6</title>
<g id="a_edge5_Node000002_Node000006"><a xlink:title=" ">
<path fill="none" stroke="#63b8ff" d="M581.93,-206.36C535.42,-193.81 478.64,-178.49 438.2,-167.58"/>
<polygon fill="#63b8ff" stroke="#63b8ff" points="581.12,-209.76 591.68,-208.99 582.94,-203.01 581.12,-209.76"/>
</a>
</g>
</g>
<!-- Node7 -->
<g id="Node000007" class="node">
<title>Node7</title>
<g id="a_Node000007"><a xlink:href="Backend_2MessageService_2tests_2test__messagemanager_8cpp.html" target="_top" xlink:title=" ">
<polygon fill="white" stroke="#666666" points="652,-167.5 474,-167.5 474,-137.5 652,-137.5 652,-167.5"/>
<text text-anchor="start" x="482" y="-155.5" font-family="Helvetica,sans-Serif" font-size="10.00">Backend/MessageService</text>
<text text-anchor="middle" x="563" y="-144.5" font-family="Helvetica,sans-Serif" font-size="10.00">/tests/test_messagemanager.cpp</text>
</a>
</g>
</g>
<!-- Node2&#45;&gt;Node7 -->
<g id="edge6_Node000002_Node000007" class="edge">
<title>Node2&#45;&gt;Node7</title>
<g id="a_edge6_Node000002_Node000007"><a xlink:title=" ">
<path fill="none" stroke="#63b8ff" d="M629.68,-203.01C613.79,-191.22 595.52,-177.65 582.12,-167.7"/>
<polygon fill="#63b8ff" stroke="#63b8ff" points="627.61,-205.84 637.73,-208.99 631.79,-200.22 627.61,-205.84"/>
</a>
</g>
</g>
<!-- Node10 -->
<g id="Node000010" class="node">
<title>Node10</title>
<g id="a_Node000010"><a xlink:href="SocketHandlersRepositoty_8h.html" target="_top" xlink:title=" ">
<polygon fill="white" stroke="#666666" points="1516,-167.5 1322,-167.5 1322,-137.5 1516,-137.5 1516,-167.5"/>
<text text-anchor="start" x="1330" y="-155.5" font-family="Helvetica,sans-Serif" font-size="10.00">Backend/NotificationService</text>
<text text-anchor="middle" x="1419" y="-144.5" font-family="Helvetica,sans-Serif" font-size="10.00">/include/SocketHandlersRepositoty.h</text>
</a>
</g>
</g>
<!-- Node9&#45;&gt;Node10 -->
<g id="edge10_Node000009_Node000010" class="edge">
<title>Node9&#45;&gt;Node10</title>
<g id="a_edge10_Node000009_Node000010"><a xlink:title=" ">
<path fill="none" stroke="#63b8ff" d="M1436.7,-199.27C1432.53,-188.49 1427.99,-176.75 1424.55,-167.86"/>
<polygon fill="#63b8ff" stroke="#63b8ff" points="1433.51,-200.73 1440.38,-208.79 1440.04,-198.21 1433.51,-200.73"/>
</a>
</g>
</g>
<!-- Node11 -->
<g id="Node000011" class="node">
<title>Node11</title>
<g id="a_Node000011"><a xlink:href="Backend_2NotificationService_2main_8cpp.html" target="_top" xlink:title=" ">
<polygon fill="white" stroke="#666666" points="1171.5,-96 1018.5,-96 1018.5,-66 1171.5,-66 1171.5,-96"/>
<text text-anchor="start" x="1026.5" y="-84" font-family="Helvetica,sans-Serif" font-size="10.00">Backend/NotificationService</text>
<text text-anchor="middle" x="1095" y="-73" font-family="Helvetica,sans-Serif" font-size="10.00">/main.cpp</text>
</a>
</g>
</g>
<!-- Node9&#45;&gt;Node11 -->
<g id="edge15_Node000009_Node000011" class="edge">
<title>Node9&#45;&gt;Node11</title>
<g id="a_edge15_Node000009_Node000011"><a xlink:title=" ">
<path fill="none" stroke="#63b8ff" d="M1375.5,-205.18C1354.4,-196.71 1331.95,-185.97 1313,-173 1292.25,-158.79 1295.55,-144.96 1274,-132 1254.51,-120.28 1202.18,-106.3 1159.11,-96.11"/>
<polygon fill="#63b8ff" stroke="#63b8ff" points="1374.49,-208.54 1385.08,-208.91 1377.03,-202.02 1374.49,-208.54"/>
</a>
</g>
</g>
<!-- Node13 -->
<g id="Node000013" class="node">
<title>Node13</title>
<g id="a_Node000013"><a xlink:href="NotificationService_2src_2server_8cpp.html" target="_top" xlink:title=" ">
<polygon fill="white" stroke="#666666" points="1824.5,-96 1671.5,-96 1671.5,-66 1824.5,-66 1824.5,-96"/>
<text text-anchor="start" x="1679.5" y="-84" font-family="Helvetica,sans-Serif" font-size="10.00">Backend/NotificationService</text>
<text text-anchor="middle" x="1748" y="-73" font-family="Helvetica,sans-Serif" font-size="10.00">/src/server.cpp</text>
</a>
</g>
</g>
<!-- Node9&#45;&gt;Node13 -->
<g id="edge18_Node000009_Node000013" class="edge">
<title>Node9&#45;&gt;Node13</title>
<g id="a_edge18_Node000009_Node000013"><a xlink:title=" ">
<path fill="none" stroke="#63b8ff" d="M1486.88,-202.9C1499.48,-193.97 1513.23,-183.54 1525,-173 1543.28,-156.62 1541.07,-144.82 1562,-132 1581.89,-119.82 1635.33,-106.06 1679.86,-96.07"/>
<polygon fill="#63b8ff" stroke="#63b8ff" points="1484.58,-200.23 1478.38,-208.82 1488.58,-205.97 1484.58,-200.23"/>
</a>
</g>
</g>
<!-- Node15 -->
<g id="Node000015" class="node">
<title>Node15</title>
<g id="a_Node000015"><a xlink:href="RabbitNotificationSubscriber_8cpp.html" target="_top" xlink:title=" ">
<polygon fill="white" stroke="#666666" points="1766.5,-167.5 1571.5,-167.5 1571.5,-137.5 1766.5,-137.5 1766.5,-167.5"/>
<text text-anchor="start" x="1579.5" y="-155.5" font-family="Helvetica,sans-Serif" font-size="10.00">Backend/NotificationService</text>
<text text-anchor="middle" x="1669" y="-144.5" font-family="Helvetica,sans-Serif" font-size="10.00">/src/RabbitNotificationSubscriber.cpp</text>
</a>
</g>
</g>
<!-- Node9&#45;&gt;Node15 -->
<g id="edge16_Node000009_Node000015" class="edge">
<title>Node9&#45;&gt;Node15</title>
<g id="a_edge16_Node000009_Node000015"><a xlink:title=" ">
<path fill="none" stroke="#63b8ff" d="M1515.11,-205.73C1551.72,-193.3 1595.89,-178.31 1627.5,-167.58"/>
<polygon fill="#63b8ff" stroke="#63b8ff" points="1513.83,-202.46 1505.49,-208.99 1516.08,-209.09 1513.83,-202.46"/>
</a>
</g>
</g>
<!-- Node16 -->
<g id="Node000016" class="node">
<title>Node16</title>
<g id="a_Node000016"><a xlink:href="NotificationOrchestrator_8cpp.html" target="_top" xlink:title=" ">
<polygon fill="white" stroke="#666666" points="1265.5,-167.5 1040.5,-167.5 1040.5,-137.5 1265.5,-137.5 1265.5,-167.5"/>
<text text-anchor="start" x="1048.5" y="-155.5" font-family="Helvetica,sans-Serif" font-size="10.00">Backend/NotificationService</text>
<text text-anchor="middle" x="1153" y="-144.5" font-family="Helvetica,sans-Serif" font-size="10.00">/src/managers/NotificationOrchestrator.cpp</text>
</a>
</g>
</g>
<!-- Node9&#45;&gt;Node16 -->
<g id="edge17_Node000009_Node000016" class="edge">
<title>Node9&#45;&gt;Node16</title>
<g id="a_edge17_Node000009_Node000016"><a xlink:title=" ">
<path fill="none" stroke="#63b8ff" d="M1361.53,-206.52C1312.06,-193.94 1251.48,-178.54 1208.39,-167.58"/>
<polygon fill="#63b8ff" stroke="#63b8ff" points="1360.71,-209.92 1371.26,-208.99 1362.43,-203.13 1360.71,-209.92"/>
</a>
</g>
</g>
<!-- Node17 -->
<g id="Node000017" class="node">
<title>Node17</title>
<g id="a_Node000017"><a xlink:href="test__rabbitsubscriber_8cpp.html" target="_top" xlink:title=" ">
<polygon fill="white" stroke="#666666" points="1953.5,-167.5 1784.5,-167.5 1784.5,-137.5 1953.5,-137.5 1953.5,-167.5"/>
<text text-anchor="start" x="1792.5" y="-155.5" font-family="Helvetica,sans-Serif" font-size="10.00">Backend/NotificationService</text>
<text text-anchor="middle" x="1869" y="-144.5" font-family="Helvetica,sans-Serif" font-size="10.00">/tests/test_rabbitsubscriber.cpp</text>
</a>
</g>
</g>
<!-- Node9&#45;&gt;Node17 -->
<g id="edge19_Node000009_Node000017" class="edge">
<title>Node9&#45;&gt;Node17</title>
<g id="a_edge19_Node000009_Node000017"><a xlink:title=" ">
<path fill="none" stroke="#63b8ff" d="M1556.53,-208.75C1654.31,-192.03 1680.72,-190.48 1775,-173 1784.1,-171.31 1793.66,-169.44 1803.08,-167.54"/>
<polygon fill="#63b8ff" stroke="#63b8ff" points="1555.78,-205.33 1546.52,-210.48 1556.97,-212.23 1555.78,-205.33"/>
</a>
</g>
</g>
<!-- Node10&#45;&gt;Node11 -->
<g id="edge11_Node000010_Node000011" class="edge">
<title>Node10&#45;&gt;Node11</title>
<g id="a_edge11_Node000010_Node000011"><a xlink:title=" ">
<path fill="none" stroke="#63b8ff" d="M1343.31,-135.26C1287.86,-123.37 1213.36,-107.39 1160.47,-96.04"/>
<polygon fill="#63b8ff" stroke="#63b8ff" points="1342.92,-138.76 1353.43,-137.44 1344.39,-131.92 1342.92,-138.76"/>
</a>
</g>
</g>
<!-- Node12 -->
<g id="Node000012" class="node">
<title>Node12</title>
<g id="a_Node000012"><a xlink:href="SocketHandlersRepository_8cpp.html" target="_top" xlink:title=" ">
<polygon fill="white" stroke="#666666" points="1653.5,-96 1424.5,-96 1424.5,-66 1653.5,-66 1653.5,-96"/>
<text text-anchor="start" x="1432.5" y="-84" font-family="Helvetica,sans-Serif" font-size="10.00">Backend/NotificationService</text>
<text text-anchor="middle" x="1539" y="-73" font-family="Helvetica,sans-Serif" font-size="10.00">/src/handlers/SocketHandlersRepository.cpp</text>
</a>
</g>
</g>
<!-- Node10&#45;&gt;Node12 -->
<g id="edge12_Node000010_Node000012" class="edge">
<title>Node10&#45;&gt;Node12</title>
<g id="a_edge12_Node000010_Node000012"><a xlink:title=" ">
<path fill="none" stroke="#63b8ff" d="M1452.01,-132.38C1471.87,-120.88 1496.71,-106.49 1514.75,-96.04"/>
<polygon fill="#63b8ff" stroke="#63b8ff" points="1450.18,-129.4 1443.28,-137.44 1453.69,-135.45 1450.18,-129.4"/>
</a>
</g>
</g>
<!-- Node10&#45;&gt;Node13 -->
<g id="edge13_Node000010_Node000013" class="edge">
<title>Node10&#45;&gt;Node13</title>
<g id="a_edge13_Node000010_Node000013"><a xlink:title=" ">
<path fill="none" stroke="#63b8ff" d="M1495.51,-135.34C1551.85,-123.44 1627.7,-107.41 1681.52,-96.04"/>
<polygon fill="#63b8ff" stroke="#63b8ff" points="1494.64,-131.94 1485.58,-137.44 1496.09,-138.79 1494.64,-131.94"/>
</a>
</g>
</g>
<!-- Node14 -->
<g id="Node000014" class="node">
<title>Node14</title>
<g id="a_Node000014"><a xlink:href="test__socketHandlersRepository_8cpp.html" target="_top" xlink:title=" ">
<polygon fill="white" stroke="#666666" points="1406.5,-96 1189.5,-96 1189.5,-66 1406.5,-66 1406.5,-96"/>
<text text-anchor="start" x="1197.5" y="-84" font-family="Helvetica,sans-Serif" font-size="10.00">Backend/NotificationService</text>
<text text-anchor="middle" x="1298" y="-73" font-family="Helvetica,sans-Serif" font-size="10.00">/tests/test_socketHandlersRepository.cpp</text>
</a>
</g>
</g>
<!-- Node10&#45;&gt;Node14 -->
<g id="edge14_Node000010_Node000014" class="edge">
<title>Node10&#45;&gt;Node14</title>
<g id="a_edge14_Node000010_Node000014"><a xlink:title=" ">
<path fill="none" stroke="#63b8ff" d="M1385.71,-132.38C1365.69,-120.88 1340.65,-106.49 1322.45,-96.04"/>
<polygon fill="#63b8ff" stroke="#63b8ff" points="1384.1,-135.49 1394.51,-137.44 1387.59,-129.42 1384.1,-135.49"/>
</a>
</g>
</g>
<!-- Node20&#45;&gt;Node17 -->
<g id="edge24_Node000020_Node000017" class="edge">
<title>Node20&#45;&gt;Node17</title>
<g id="a_edge24_Node000020_Node000017"><a xlink:title=" ">
<path fill="none" stroke="#63b8ff" d="M1688.37,-211.39C1729.73,-198.14 1786.32,-180 1825.08,-167.58"/>
<polygon fill="#63b8ff" stroke="#63b8ff" points="1687.19,-208.1 1678.74,-214.48 1689.33,-214.76 1687.19,-208.1"/>
</a>
</g>
</g>
<!-- Node21 -->
<g id="Node000021" class="node">
<title>Node21</title>
<g id="a_Node000021"><a xlink:href="test__messageHandlers_8cpp.html" target="_top" xlink:title=" ">
<polygon fill="white" stroke="#666666" points="2150.5,-167.5 1971.5,-167.5 1971.5,-137.5 2150.5,-137.5 2150.5,-167.5"/>
<text text-anchor="start" x="1979.5" y="-155.5" font-family="Helvetica,sans-Serif" font-size="10.00">Backend/NotificationService</text>
<text text-anchor="middle" x="2061" y="-144.5" font-family="Helvetica,sans-Serif" font-size="10.00">/tests/test_messageHandlers.cpp</text>
</a>
</g>
</g>
<!-- Node20&#45;&gt;Node21 -->
<g id="edge23_Node000020_Node000021" class="edge">
<title>Node20&#45;&gt;Node21</title>
<g id="a_edge23_Node000020_Node000021"><a xlink:title=" ">
<path fill="none" stroke="#63b8ff" d="M1698.71,-212.21C1703.87,-211.06 1709.02,-209.97 1714,-209 1823.31,-187.63 1852.22,-191.77 1962,-173 1971.76,-171.33 1982.03,-169.45 1992.11,-167.53"/>
<polygon fill="#63b8ff" stroke="#63b8ff" points="1697.78,-208.83 1688.81,-214.47 1699.34,-215.65 1697.78,-208.83"/>
</a>
</g>
</g>
<!-- Node23 -->
<g id="Node000023" class="node">
<title>Node23</title>
<g id="a_Node000023"><a xlink:href="metaentities_8h.html" target="_top" xlink:title=" ">
<polygon fill="white" stroke="#666666" points="2287.5,-173 2168.5,-173 2168.5,-132 2287.5,-132 2287.5,-173"/>
<text text-anchor="start" x="2176.5" y="-161" font-family="Helvetica,sans-Serif" font-size="10.00">common/Persistence</text>
<text text-anchor="start" x="2176.5" y="-150" font-family="Helvetica,sans-Serif" font-size="10.00">/include/metaentity</text>
<text text-anchor="middle" x="2228" y="-139" font-family="Helvetica,sans-Serif" font-size="10.00">/metaentities.h</text>
</a>
</g>
</g>
<!-- Node22&#45;&gt;Node23 -->
<g id="edge26_Node000022_Node000023" class="edge">
<title>Node22&#45;&gt;Node23</title>
<g id="a_edge26_Node000022_Node000023"><a xlink:title=" ">
<path fill="none" stroke="#63b8ff" d="M2210.31,-199.26C2213.7,-190.48 2217.34,-181.07 2220.43,-173.07"/>
<polygon fill="#63b8ff" stroke="#63b8ff" points="2206.96,-198.21 2206.62,-208.79 2213.49,-200.73 2206.96,-198.21"/>
</a>
</g>
</g>
<!-- Node24 -->
<g id="Node000024" class="node">
<title>Node24</title>
<g id="a_Node000024"><a xlink:href="SelectQuery_8h.html" target="_top" xlink:title=" ">
<polygon fill="white" stroke="#666666" points="2305.5,-96 2150.5,-96 2150.5,-66 2305.5,-66 2305.5,-96"/>
<text text-anchor="start" x="2158.5" y="-84" font-family="Helvetica,sans-Serif" font-size="10.00">common/Persistence</text>
<text text-anchor="middle" x="2228" y="-73" font-family="Helvetica,sans-Serif" font-size="10.00">/include/query/SelectQuery.h</text>
</a>
</g>
</g>
<!-- Node23&#45;&gt;Node24 -->
<g id="edge27_Node000023_Node000024" class="edge">
<title>Node23&#45;&gt;Node24</title>
<g id="a_edge27_Node000023_Node000024"><a xlink:title=" ">
<path fill="none" stroke="#63b8ff" d="M2228,-121.66C2228,-112.76 2228,-103.42 2228,-96.04"/>
<polygon fill="#63b8ff" stroke="#63b8ff" points="2224.5,-121.77 2228,-131.77 2231.5,-121.77 2224.5,-121.77"/>
</a>
</g>
</g>
<!-- Node25 -->
<g id="Node000025" class="node">
<title>Node25</title>
<g id="a_Node000025"><a xlink:href="QueryFactory_8h.html" target="_top" xlink:title=" ">
<polygon fill="white" stroke="#666666" points="2293,-30 2163,-30 2163,0 2293,0 2293,-30"/>
<text text-anchor="start" x="2171" y="-18" font-family="Helvetica,sans-Serif" font-size="10.00">common/Persistence</text>
<text text-anchor="middle" x="2228" y="-7" font-family="Helvetica,sans-Serif" font-size="10.00">/include/QueryFactory.h</text>
</a>
</g>
</g>
<!-- Node24&#45;&gt;Node25 -->
<g id="edge28_Node000024_Node000025" class="edge">
<title>Node24&#45;&gt;Node25</title>
<g id="a_edge28_Node000024_Node000025"><a xlink:title=" ">
<path fill="none" stroke="#63b8ff" d="M2228,-55.54C2228,-46.96 2228,-37.61 2228,-30.16"/>
<polygon fill="#63b8ff" stroke="#63b8ff" points="2224.5,-55.8 2228,-65.8 2231.5,-55.8 2224.5,-55.8"/>
</a>
</g>
</g>
<!-- Node27&#45;&gt;Node4 -->
<g id="edge31_Node000027_Node000004" class="edge">
<title>Node27&#45;&gt;Node4</title>
<g id="a_edge31_Node000027_Node000004"><a xlink:title=" ">
<path fill="none" stroke="#63b8ff" d="M228,-204.04C228,-191.95 228,-177.79 228,-167.54"/>
<polygon fill="#63b8ff" stroke="#63b8ff" points="224.5,-204.39 228,-214.39 231.5,-204.39 224.5,-204.39"/>
</a>
</g>
</g>
<!-- Node28 -->
<g id="Node000028" class="node">
<title>Node28</title>
<g id="a_Node000028"><a xlink:href="MessageService_2src_2server_8cpp.html" target="_top" xlink:title=" ">
<polygon fill="white" stroke="#666666" points="140,-167.5 0,-167.5 0,-137.5 140,-137.5 140,-167.5"/>
<text text-anchor="start" x="8" y="-155.5" font-family="Helvetica,sans-Serif" font-size="10.00">Backend/MessageService</text>
<text text-anchor="middle" x="70" y="-144.5" font-family="Helvetica,sans-Serif" font-size="10.00">/src/server.cpp</text>
</a>
</g>
</g>
<!-- Node27&#45;&gt;Node28 -->
<g id="edge32_Node000027_Node000028" class="edge">
<title>Node27&#45;&gt;Node28</title>
<g id="a_edge32_Node000027_Node000028"><a xlink:title=" ">
<path fill="none" stroke="#63b8ff" d="M188.91,-209.94C161.28,-196.83 124.81,-179.52 99.59,-167.54"/>
<polygon fill="#63b8ff" stroke="#63b8ff" points="187.75,-213.27 198.28,-214.39 190.75,-206.94 187.75,-213.27"/>
</a>
</g>
</g>
</g>
</svg>

<g id="navigator" transform="translate(0 0)" fill="#404254">
  <rect fill="#f2f5e9" fill-opacity="0.5" stroke="#606060" stroke-width=".5" x="0" y="0" width="60" height="60"/>
  <use id="zoomplus" xlink:href="#zoomPlus" x="17" y="9" onmousedown="handleZoom(evt,'in')"/>
  <use id="zoomminus" xlink:href="#zoomMin" x="42" y="9" onmousedown="handleZoom(evt,'out')"/>
  <use id="reset" xlink:href="#resetDef" x="30" y="36" onmousedown="handleReset()"/>
   <use id="arrowup" xlink:href="#arrowUp" x="0" y="0" onmousedown="handlePan(0,-1)"/>
  <use id="arrowright" xlink:href="#arrowRight" x="0" y="0" onmousedown="handlePan(1,0)"/>
  <use id="arrowdown" xlink:href="#arrowDown" x="0" y="0" onmousedown="handlePan(0,1)"/>
  <use id="arrowleft" xlink:href="#arrowLeft" x="0" y="0" onmousedown="handlePan(-1,0)"/>
</g>
<svg viewBox="0 0 15 15" width="100%" height="30px" preserveAspectRatio="xMaxYMin meet">
 <g id="arrow_out" transform="scale(0.3 0.3)">
  <a xlink:href="common_2entities_2include_2entities_2Message_8h__dep__incl_org.svg" target="_base">
   <rect id="button" ry="5" rx="5" y="6" x="6" height="38" width="38"
        fill="#f2f5e9" fill-opacity="0.5" stroke="#606060" stroke-width="1.0"/>
   <path id="arrow"
     d="M 11.500037,31.436501 C 11.940474,20.09759 22.043105,11.32322 32.158766,21.979434 L 37.068811,17.246167 C 37.068811,17.246167 37.088388,32 37.088388,32 L 22.160133,31.978069 C 22.160133,31.978069 26.997745,27.140456 26.997745,27.140456 C 18.528582,18.264221 13.291696,25.230495 11.500037,31.436501 z"
     style="fill:#404040;"/>
  </a>
 </g>
</svg>

<style type='text/css'>
<![CDATA[
[data-mouse-over-selected='false'] { opacity: 0.7; }
[data-mouse-over-selected='true']  { opacity: 1.0; }
]]>
</style>
<script type="application/ecmascript"><![CDATA[
document.addEventListener('DOMContentLoaded', (event) => {
  highlightEdges();
  highlightAdjacentNodes();
});
]]></script>
</svg>
