<?xml version="1.0" encoding="UTF-8" standalone="no"?>
<!DOCTYPE svg PUBLIC "-//W3C//DTD SVG 1.1//EN"
 "http://www.w3.org/Graphics/SVG/1.1/DTD/svg11.dtd">
<!-- Generated by graphviz version 2.43.0 (0)
 -->
<!-- Title: Backend/common_mocks/mocks/MockRabitMQClient.h Pages: 1 -->
<svg width="1037pt" height="181pt"
 viewBox="0.00 0.00 1037.00 181.00" xmlns="http://www.w3.org/2000/svg" xmlns:xlink="http://www.w3.org/1999/xlink">
<g id="graph0" class="graph" transform="scale(1 1) rotate(0) translate(4 177)">
<title>Backend/common_mocks/mocks/MockRabitMQClient.h</title>
<!-- Node1 -->
<g id="Node000001" class="node">
<title>Node1</title>
<g id="a_Node000001"><a xlink:title=" ">
<polygon fill="#999999" stroke="#666666" points="589,-173 428,-173 428,-143 589,-143 589,-173"/>
<text text-anchor="start" x="436" y="-161" font-family="Helvetica,sans-Serif" font-size="10.00">Backend/common_mocks</text>
<text text-anchor="middle" x="508.5" y="-150" font-family="Helvetica,sans-Serif" font-size="10.00">/mocks/MockRabitMQClient.h</text>
</a>
</g>
</g>
<!-- Node2 -->
<g id="Node000002" class="node">
<title>Node2</title>
<g id="a_Node000002"><a xlink:href="request__responce__pattern__benchmark_8cpp.html" target="_top" xlink:title=" ">
<polygon fill="white" stroke="#666666" points="167,-107 0,-107 0,-66 167,-66 167,-107"/>
<text text-anchor="start" x="8" y="-95" font-family="Helvetica,sans-Serif" font-size="10.00">Backend/Gateway/benchmarks</text>
<text text-anchor="start" x="8" y="-84" font-family="Helvetica,sans-Serif" font-size="10.00">/request_responce_pattern</text>
<text text-anchor="middle" x="83.5" y="-73" font-family="Helvetica,sans-Serif" font-size="10.00">_benchmark.cpp</text>
</a>
</g>
</g>
<!-- Node1&#45;&gt;Node2 -->
<g id="edge1_Node000001_Node000002" class="edge">
<title>Node1&#45;&gt;Node2</title>
<g id="a_edge1_Node000001_Node000002"><a xlink:title=" ">
<path fill="none" stroke="#63b8ff" d="M417.7,-144.75C350.84,-135.39 257.8,-121.63 176.5,-107 173.42,-106.44 170.28,-105.86 167.11,-105.27"/>
<polygon fill="#63b8ff" stroke="#63b8ff" points="417.4,-148.24 427.78,-146.16 418.36,-141.31 417.4,-148.24"/>
</a>
</g>
</g>
<!-- Node3 -->
<g id="Node000003" class="node">
<title>Node3</title>
<g id="a_Node000003"><a xlink:href="Backend_2Gateway_2main_8cpp.html" target="_top" xlink:title=" ">
<polygon fill="white" stroke="#666666" points="337.5,-96 185.5,-96 185.5,-77 337.5,-77 337.5,-96"/>
<text text-anchor="middle" x="261.5" y="-84" font-family="Helvetica,sans-Serif" font-size="10.00">Backend/Gateway/main.cpp</text>
</a>
</g>
</g>
<!-- Node1&#45;&gt;Node3 -->
<g id="edge2_Node000001_Node000003" class="edge">
<title>Node1&#45;&gt;Node3</title>
<g id="a_edge2_Node000001_Node000003"><a xlink:title=" ">
<path fill="none" stroke="#63b8ff" d="M448.88,-140.22C399.36,-126.29 330.94,-107.04 291.95,-96.07"/>
<polygon fill="#63b8ff" stroke="#63b8ff" points="447.94,-143.6 458.52,-142.94 449.84,-136.86 447.94,-143.6"/>
</a>
</g>
</g>
<!-- Node4 -->
<g id="Node000004" class="node">
<title>Node4</title>
<g id="a_Node000004"><a xlink:href="test__gatewayserver_8cpp.html" target="_top" xlink:title=" ">
<polygon fill="white" stroke="#666666" points="491.5,-101.5 355.5,-101.5 355.5,-71.5 491.5,-71.5 491.5,-101.5"/>
<text text-anchor="start" x="363.5" y="-89.5" font-family="Helvetica,sans-Serif" font-size="10.00">Backend/Gateway/tests</text>
<text text-anchor="middle" x="423.5" y="-78.5" font-family="Helvetica,sans-Serif" font-size="10.00">/test_gatewayserver.cpp</text>
</a>
</g>
</g>
<!-- Node1&#45;&gt;Node4 -->
<g id="edge3_Node000001_Node000004" class="edge">
<title>Node1&#45;&gt;Node4</title>
<g id="a_edge3_Node000001_Node000004"><a xlink:title=" ">
<path fill="none" stroke="#63b8ff" d="M483.19,-136.31C469.48,-125.09 452.88,-111.52 440.68,-101.54"/>
<polygon fill="#63b8ff" stroke="#63b8ff" points="481.34,-139.32 491.3,-142.94 485.77,-133.9 481.34,-139.32"/>
</a>
</g>
</g>
<!-- Node5 -->
<g id="Node000005" class="node">
<title>Node5</title>
<g id="a_Node000005"><a xlink:href="test__rabbitsubscriber_8cpp.html" target="_top" xlink:title=" ">
<polygon fill="white" stroke="#666666" points="679,-101.5 510,-101.5 510,-71.5 679,-71.5 679,-101.5"/>
<text text-anchor="start" x="518" y="-89.5" font-family="Helvetica,sans-Serif" font-size="10.00">Backend/NotificationService</text>
<text text-anchor="middle" x="594.5" y="-78.5" font-family="Helvetica,sans-Serif" font-size="10.00">/tests/test_rabbitsubscriber.cpp</text>
</a>
</g>
</g>
<!-- Node1&#45;&gt;Node5 -->
<g id="edge4_Node000001_Node000005" class="edge">
<title>Node1&#45;&gt;Node5</title>
<g id="a_edge4_Node000001_Node000005"><a xlink:title=" ">
<path fill="none" stroke="#63b8ff" d="M533.71,-136.63C547.67,-125.35 564.66,-111.62 577.12,-101.54"/>
<polygon fill="#63b8ff" stroke="#63b8ff" points="531.48,-133.93 525.9,-142.94 535.88,-139.37 531.48,-133.93"/>
</a>
</g>
</g>
<!-- Node6 -->
<g id="Node000006" class="node">
<title>Node6</title>
<g id="a_Node000006"><a xlink:href="test__rabitmqpublisher_8cpp.html" target="_top" xlink:title=" ">
<polygon fill="white" stroke="#666666" points="870,-101.5 697,-101.5 697,-71.5 870,-71.5 870,-101.5"/>
<text text-anchor="start" x="705" y="-89.5" font-family="Helvetica,sans-Serif" font-size="10.00">Backend/NotificationService</text>
<text text-anchor="middle" x="783.5" y="-78.5" font-family="Helvetica,sans-Serif" font-size="10.00">/tests/test_rabitmqpublisher.cpp</text>
</a>
</g>
</g>
<!-- Node1&#45;&gt;Node6 -->
<g id="edge5_Node000001_Node000006" class="edge">
<title>Node1&#45;&gt;Node6</title>
<g id="a_edge5_Node000001_Node000006"><a xlink:title=" ">
<path fill="none" stroke="#63b8ff" d="M573.92,-140.47C620.85,-128.61 683.41,-112.8 727.93,-101.54"/>
<polygon fill="#63b8ff" stroke="#63b8ff" points="572.99,-137.09 564.15,-142.94 574.7,-143.88 572.99,-137.09"/>
</a>
</g>
</g>
<!-- Node7 -->
<g id="Node000007" class="node">
<title>Node7</title>
<g id="a_Node000007"><a xlink:href="mocks_8h.html" target="_top" xlink:title=" ">
<polygon fill="white" stroke="#666666" points="1029,-101.5 888,-101.5 888,-71.5 1029,-71.5 1029,-101.5"/>
<text text-anchor="start" x="896" y="-89.5" font-family="Helvetica,sans-Serif" font-size="10.00">Backend/common_mocks</text>
<text text-anchor="middle" x="958.5" y="-78.5" font-family="Helvetica,sans-Serif" font-size="10.00">/mocks.h</text>
</a>
</g>
</g>
<!-- Node1&#45;&gt;Node7 -->
<g id="edge6_Node000001_Node000007" class="edge">
<title>Node1&#45;&gt;Node7</title>
<g id="a_edge6_Node000001_Node000007"><a xlink:title=" ">
<path fill="none" stroke="#63b8ff" d="M599.18,-147.55C674.56,-139.03 784.48,-125.07 879.5,-107 887.83,-105.42 896.59,-103.5 905.13,-101.5"/>
<polygon fill="#63b8ff" stroke="#63b8ff" points="598.78,-144.07 589.24,-148.66 599.56,-151.03 598.78,-144.07"/>
</a>
</g>
</g>
<!-- Node8 -->
<g id="Node000008" class="node">
<title>Node8</title>
<g id="a_Node000008"><a xlink:href="MessageService_2tests_2test__controller_8cpp.html" target="_top" xlink:title=" ">
<polygon fill="white" stroke="#666666" points="1028.5,-30 888.5,-30 888.5,0 1028.5,0 1028.5,-30"/>
<text text-anchor="start" x="896.5" y="-18" font-family="Helvetica,sans-Serif" font-size="10.00">Backend/MessageService</text>
<text text-anchor="middle" x="958.5" y="-7" font-family="Helvetica,sans-Serif" font-size="10.00">/tests/test_controller.cpp</text>
</a>
</g>
</g>
<!-- Node7&#45;&gt;Node8 -->
<g id="edge7_Node000007_Node000008" class="edge">
<title>Node7&#45;&gt;Node8</title>
<g id="a_edge7_Node000007_Node000008"><a xlink:title=" ">
<path fill="none" stroke="#63b8ff" d="M958.5,-61.25C958.5,-50.81 958.5,-38.99 958.5,-30.04"/>
<polygon fill="#63b8ff" stroke="#63b8ff" points="955,-61.44 958.5,-71.44 962,-61.44 955,-61.44"/>
</a>
</g>
</g>
</g>
</svg>
