<?xml version="1.0" encoding="UTF-8" standalone="no"?>
<!DOCTYPE svg PUBLIC "-//W3C//DTD SVG 1.1//EN"
 "http://www.w3.org/Graphics/SVG/1.1/DTD/svg11.dtd">
<!-- Generated by graphviz version 2.43.0 (0)
 -->
<!-- Title: utils::time::getCurrentTime Pages: 1 -->
<svg width="448pt" height="76pt"
 viewBox="0.00 0.00 448.00 75.50" xmlns="http://www.w3.org/2000/svg" xmlns:xlink="http://www.w3.org/1999/xlink">
<g id="graph0" class="graph" transform="scale(1 1) rotate(0) translate(4 71.5)">
<title>utils::time::getCurrentTime</title>
<!-- Node1 -->
<g id="Node000001" class="node">
<title>Node1</title>
<g id="a_Node000001"><a xlink:title=" ">
<polygon fill="#999999" stroke="#666666" points="440,-40 291,-40 291,-21 440,-21 440,-40"/>
<text text-anchor="middle" x="365.5" y="-28" font-family="Helvetica,sans-Serif" font-size="10.00">utils::time::getCurrentTime</text>
</a>
</g>
</g>
<!-- Node2 -->
<g id="Node000002" class="node">
<title>Node2</title>
<g id="a_Node000002"><a xlink:href="classMarkReadMessageHandler.html#adcbba939a663595f3b1a6a96c4a0db66" target="_top" xlink:title=" ">
<polygon fill="white" stroke="#666666" points="255,-67.5 107,-67.5 107,-37.5 255,-37.5 255,-67.5"/>
<text text-anchor="start" x="115" y="-55.5" font-family="Helvetica,sans-Serif" font-size="10.00">MarkReadMessageHandler</text>
<text text-anchor="middle" x="181" y="-44.5" font-family="Helvetica,sans-Serif" font-size="10.00">::handle</text>
</a>
</g>
</g>
<!-- Node1&#45;&gt;Node2 -->
<g id="edge1_Node000001_Node000002" class="edge">
<title>Node1&#45;&gt;Node2</title>
<g id="a_edge1_Node000001_Node000002"><a xlink:title=" ">
<path fill="none" stroke="#63b8ff" d="M280.79,-40.59C272.21,-41.63 263.54,-42.67 255.09,-43.69"/>
<polygon fill="#63b8ff" stroke="#63b8ff" points="281.29,-44.06 290.8,-39.38 280.45,-37.11 281.29,-44.06"/>
</a>
</g>
</g>
<!-- Node4 -->
<g id="Node000004" class="node">
<title>Node4</title>
<g id="a_Node000004"><a xlink:href="MessageService_2tests_2test__controller_8cpp.html#a13b8b5eebfe206f47edaa74b521d7ee9" target="_top" xlink:title=" ">
<polygon fill="white" stroke="#666666" points="216.5,-19 145.5,-19 145.5,0 216.5,0 216.5,-19"/>
<text text-anchor="middle" x="181" y="-7" font-family="Helvetica,sans-Serif" font-size="10.00">TEST_CASE</text>
</a>
</g>
</g>
<!-- Node1&#45;&gt;Node4 -->
<g id="edge3_Node000001_Node000004" class="edge">
<title>Node1&#45;&gt;Node4</title>
<g id="a_edge3_Node000001_Node000004"><a xlink:title=" ">
<path fill="none" stroke="#63b8ff" d="M280.85,-20.87C258.31,-18.28 235.15,-15.62 216.92,-13.52"/>
<polygon fill="#63b8ff" stroke="#63b8ff" points="280.46,-24.35 290.8,-22.02 281.26,-17.4 280.46,-24.35"/>
</a>
</g>
</g>
<!-- Node3 -->
<g id="Node000003" class="node">
<title>Node3</title>
<g id="a_Node000003"><a xlink:href="test__messageHandlers_8cpp.html#a2ed08bb30c273fab9e605b68f9c9f6f7" target="_top" xlink:title=" ">
<polygon fill="white" stroke="#666666" points="71,-62 0,-62 0,-43 71,-43 71,-62"/>
<text text-anchor="middle" x="35.5" y="-50" font-family="Helvetica,sans-Serif" font-size="10.00">TEST_CASE</text>
</a>
</g>
</g>
<!-- Node2&#45;&gt;Node3 -->
<g id="edge2_Node000002_Node000003" class="edge">
<title>Node2&#45;&gt;Node3</title>
<g id="a_edge2_Node000002_Node000003"><a xlink:title=" ">
<path fill="none" stroke="#63b8ff" d="M96.81,-52.5C87.85,-52.5 79.15,-52.5 71.26,-52.5"/>
<polygon fill="#63b8ff" stroke="#63b8ff" points="96.99,-56 106.99,-52.5 96.99,-49 96.99,-56"/>
</a>
</g>
</g>
</g>
</svg>
